<svg xmlns="http://www.w3.org/2000/svg" version="1.1" xmlns:xlink="http://www.w3.org/1999/xlink" width="1000" height="1000"><g clip-path="url(#SvgjsClipPath1028)"><rect width="1000" height="1000" fill="#000000"></rect><g transform="matrix(0.87890625,0,0,0.87890625,50,50)"><svg xmlns="http://www.w3.org/2000/svg" version="1.1" width="1024" height="1024" viewBox="0 0 1024 1024" role="img" aria-label="App Logo"><rect width="1024" height="1024" fill="#000000"></rect><path fill="#ffffff" d="M668.72,328.34 C689.32,358.34 696.94,391.4 693.07,426.86 C689.88,456.14 677.38,480.89 653.78,499.56 C648.73,503.55 643.88,504.25 638.1,502.94 C630.79,501.29 623.57,499.35 616.64,496.42 C597.64,488.41 580.02,477.37 559.4,471.2 C561.53,469.12 563.47,468.97 565.26,468.48 C584.42,463.28 599.31,452.9 605.42,433.2 C611.38,413.98 610.85,395 599.51,377.54 C591.53,365.25 579.24,359.1 565.53,355.46 C556.64,353.11 547.56,352.23 538.35,352.24 C495.19,352.3 452.04,352.26 408.88,352.25 C401.66,352.25 401.34,352.61 401.34,359.94 C401.37,400.6 401.38,441.25 401.4,481.9 C401.4,483.54 401.4,485.17 401.4,486.67 C398.43,488.17 396.06,487.13 393.71,486.53 C375.88,482 357.89,478.77 339.4,480.35 C333.49,480.86 327.64,482.02 321.94,482.86 C320.29,480.81 320.78,478.74 320.78,476.8 C320.74,411.15 320.78,345.5 320.64,279.85 C320.63,275.15 321.81,273.54 326.74,273.55 C401.55,273.7 476.37,273.31 551.18,273.84 C582.96,274.07 613.3,281.07 640.04,299.56 C651.25,307.31 660.64,316.93 668.72,328.34 Z"></path><path fill="#ffffff" d="M423.7,743.95 C423.7,723.13 423.68,702.8 423.69,682.47 C423.69,675.78 423.71,675.74 430.28,675.74 C469.77,675.71 509.27,675.92 548.76,675.59 C566.05,675.44 582.87,672.25 598.29,663.78 C618.33,652.77 628.97,636 629.84,612.96 C630.54,594.06 625.28,577.81 610.46,565.32 C607.25,562.62 603.75,560.36 600.03,558.49 C582.9,549.92 565.87,541.14 548.3,533.48 C523.76,522.78 498.77,521.96 473.25,530.12 C460.43,534.22 447.43,537.58 433.8,538.5 C417.42,539.6 401.65,536.81 385.91,533.02 C374.91,530.37 364.15,526.8 352.99,524.77 C346.76,523.63 340.48,523.99 334.1,523.36 C338.85,521.16 343.77,520.32 348.97,520.89 C358.74,521.96 368.32,524.07 377.87,526.34 C396.41,530.74 415.14,533.46 434.26,532.66 C435.87,532.59 437.58,532.99 439.47,531.76 C435.35,529.56 430.61,530.82 425.52,528.44 C433.85,527.57 440.92,527.19 447.87,526.04 C461.51,523.77 474.6,519.12 488.07,516.08 C509.89,511.14 531.03,513.97 551.85,521.36 C566.34,526.51 579.92,533.64 593.71,540.3 C614.74,550.45 636.46,556.98 660.19,554.77 C670.54,553.81 680.59,551.62 690.39,548.37 C694.54,547 696.42,548.18 698.15,551.81 C705.73,567.64 709.98,584.31 711.05,601.77 C712.77,629.82 708.26,656.53 693.55,680.99 C673.9,713.64 644.81,733.58 608.74,744.25 C587.33,750.58 565.41,753.15 543.18,753.23 C506.36,753.38 469.53,753.26 432.71,753.26 C423.71,753.26 423.71,753.27 423.7,743.95 Z"></path><path fill="#ffffff" d="M320.8,709 C320.79,654.01 320.83,599.52 320.66,545.04 C320.65,540.63 322.1,538.56 326.17,537.04 C342.01,531.15 357.87,532.35 373.84,536.21 C381.6,538.09 389.36,539.99 397.19,541.58 C400.19,542.19 401.53,543.39 401.39,546.52 C401.22,550.34 401.39,554.18 401.39,558.02 C401.38,620.83 401.37,683.65 401.35,746.47 C401.35,753.27 401.32,753.28 394.44,753.28 C371.94,753.27 349.44,753.14 326.95,753.34 C322.07,753.39 320.65,751.72 320.75,746.99 C321.01,734.5 320.82,722 320.8,709 Z"></path><path fill="#ffffff" d="M699.16,507.09 C717.14,500.78 734.75,494.52 753.37,492.2 C787.36,487.96 818.93,494.79 847.72,513.63 C849.05,514.51 850.72,515.16 851.29,517.17 C849.68,518.34 848.53,516.94 847.38,516.39 C828.55,507.29 808.51,502.73 787.89,500.33 C785.35,500.03 782.59,499.24 780.69,502.18 C780.29,502.81 778.89,502.96 777.93,503.03 C757.74,504.54 738.92,511.12 720.29,518.43 C704.6,524.58 688.76,530.11 671.83,531.79 C666.86,532.28 661.92,532.47 656.72,531.41 C680.28,527.06 701.07,515.86 722.09,505.23 C712.73,508.95 703.23,512.34 694.05,516.46 C662.56,530.58 631.65,528.52 600.89,514.07 C586.43,507.27 571.9,500.6 556.75,495.36 C528.69,485.66 501.07,487.76 473.61,497.77 C468.18,499.75 462.62,501.39 457.18,503.49 C465.98,504.07 474.57,502.47 483.22,501.43 C494.45,500.09 505.69,498.24 516.97,497.89 C538.2,497.23 558.09,503.3 577.19,512.11 C591.1,518.53 604.75,525.52 619.23,530.67 C646.16,540.25 673.16,539.2 700.23,531.32 C716.85,526.48 733.14,520.48 750.22,517.32 C753.85,516.65 757.48,515.11 761.59,516.25 C759.76,518.6 757.2,518.37 755.06,518.88 C737.03,523.24 720.07,530.76 702.54,536.6 C683.38,542.99 663.83,546.42 643.61,545.31 C626.69,544.38 611.12,538.59 595.87,531.7 C582.52,525.68 569.31,519.34 555.31,514.78 C531.37,507 507.44,506.25 483.07,512.94 C464.47,518.05 445.74,522.88 426.13,522.36 C416.43,522.1 406.93,520.58 397.42,518.94 C395.96,518.69 394.51,518.43 392.96,518.49 C397.82,522.19 404.27,522.01 410.23,525.39 C407.09,526.65 404.76,526.18 402.4,525.8 C388.1,523.49 373.93,520.52 359.79,517.43 C339.03,512.89 319.11,515.9 299.68,523.85 C296.51,525.14 293.19,526.77 289.61,524.11 C290.01,520.44 293.12,519.51 295.67,518.29 C317.7,507.75 340.58,503.66 364.56,510.17 C370.11,511.67 375.25,509.2 380.79,510.15 C394.08,512.42 407.54,513.55 421.07,512.86 C422.81,512.77 424.54,512.55 426.28,511.88 C401.88,509.71 378.68,500.9 354.13,499.98 C332.6,499.17 312.58,504.49 293.37,513.66 C291.77,514.42 290.38,515.78 288.31,515.34 C288.23,513.31 289.97,512.97 291.14,512.33 C312.44,500.5 334.83,492.51 359.64,493.71 C370.96,494.26 382.02,496.87 393.2,498.61 C415.59,502.1 437.3,499.03 458.5,491.33 C473.21,485.99 488.1,481.11 503.63,478.72 C524.89,475.45 545.4,478.88 565.41,486.24 C579.04,491.24 592.06,497.6 605.14,503.85 C619.22,510.57 633.79,515.67 649.54,516.41 C663.87,517.09 677.67,514.14 691.21,509.75 C693.75,508.93 696.26,508.07 699.16,507.09 Z"></path></svg></g></g><defs><clipPath id="SvgjsClipPath1028"><rect width="1000" height="1000" x="0" y="0" rx="350" ry="350"></rect></clipPath></defs></svg>